<?xml version="1.0" encoding="UTF-8" standalone="no"?>
<svg width="385px" height="43px" viewBox="0 0 385 43" version="1.1" xmlns="http://www.w3.org/2000/svg" xmlns:xlink="http://www.w3.org/1999/xlink" xmlns:sketch="http://www.bohemiancoding.com/sketch/ns">
    <!-- Generator: Sketch 3.0.4 (8054) - http://www.bohemiancoding.com/sketch -->
    <title>MXM_logotype</title>
    <desc>Created with Sketch.</desc>
    <defs>
        <path id="path-1" d="M0,-0.08 L384.585,-0.08 L384.585,41.94 L0,41.94"></path>
        <path id="path-3" d="M0,-0.08 L384.585,-0.08 L384.585,41.94 L0,41.94"></path>
    </defs>
    <g id="Page-1" stroke="none" stroke-width="1" fill="none" fill-rule="evenodd" sketch:type="MSPage">
        <g id="MXM_logotype" sketch:type="MSLayerGroup" transform="translate(0.000000, 1.000000)">
            <g id="Group-3">
                <mask id="mask-2" sketch:name="Clip 2" fill="white">
                    <use xlink:href="#path-1"></use>
                </mask>
                <g id="Clip-2"></g>
                <path d="M104.404,42 C99.226,42 94.554,40.269 91.586,37.25 C89.289,34.914 88.097,31.871 88.142,28.447 L88.159,27.8 L99.927,27.8 L99.927,28.465 C99.927,29.894 102.31,30.749 104.613,30.749 C105.855,30.749 107.032,30.511 107.841,30.094 C108.506,29.753 108.843,29.348 108.843,28.888 C108.843,28.024 108.189,27.101 103.331,26.823 C97.092,26.37 88.807,24.561 88.67,14.115 C88.602,10.688 89.769,7.641 92.046,5.31 C94.869,2.419 99.245,0.762 104.055,0.762 C108.863,0.762 113.25,2.418 116.088,5.307 C118.378,7.636 119.564,10.682 119.518,14.115 L119.5,14.763 L107.892,14.763 L107.892,14.098 C107.892,12.342 105.66,11.875 104.342,11.875 C102.43,11.875 100.391,12.702 100.292,14.088 C100.2,15.314 100.878,15.978 104.979,16.434 C111.604,17.152 120.68,18.136 120.68,28.941 C120.68,37.513 112.493,41.999 104.407,42 L104.404,42" id="Fill-1" fill="#FFFFFF" sketch:type="MSShapeGroup" mask="url(#mask-2)"></path>
            </g>
            <path d="M325.576,41.371 C320.235,41.371 315.229,39.525 311.482,36.172 C307.247,32.385 304.995,27.027 304.968,20.678 C305.026,7.046 315.439,-0.08 325.696,-0.08 C330.156,-0.08 334.435,1.218 337.744,3.576 C341.631,6.346 344.066,10.467 344.79,15.494 L345.013,17.046 L332.994,17.046 L332.675,16.139 C331.558,12.951 329.34,11.466 325.696,11.466 C320.813,11.466 317.658,15.08 317.658,20.672 C317.658,26.63 321.707,29.786 325.708,29.824 C329.395,29.824 331.985,27.966 332.803,24.726 L333.062,23.702 L345.155,23.702 L344.954,25.237 C344.261,30.53 341.835,34.826 337.937,37.658 C334.643,40.053 330.295,41.371 325.696,41.371 L325.576,41.371" id="Fill-4" fill="#FFFFFF" sketch:type="MSShapeGroup"></path>
            <path d="M188.971,1.015 L176.674,1.015 L166.705,11.936 L156.737,1.015 L144.44,1.015 L144.44,6.056 L158.256,21.193 L144.44,36.33 L144.44,41.371 L156.737,41.371 L166.705,30.45 L176.674,41.371 L188.971,41.371 L188.971,36.33 L175.155,21.193 L188.971,6.056 L188.971,1.015" id="Fill-5" fill="#FFFFFF" sketch:type="MSShapeGroup"></path>
            <path d="M255.188,29.195 L258.669,20.861 L262.18,29.195 L255.188,29.195 L255.188,29.195 Z M255.787,1.064 L241.437,32.299 L241.437,41.467 L250.063,41.467 L251.944,36.961 L265.451,36.961 L267.351,41.467 L278.804,41.467 L278.804,38.455 L261.57,1.064 L255.787,1.064 L255.787,1.064 Z" id="Fill-6" fill="#FFFFFF" sketch:type="MSShapeGroup"></path>
            <path d="M215.149,16.322 L199.902,1.015 L192.558,1.015 L192.558,41.467 L205.048,41.467 L205.048,23.916 L215.149,34.055 L225.249,23.916 L225.249,41.467 L237.742,41.467 L237.742,1.015 L230.398,1.015 L215.149,16.322" id="Fill-7" fill="#FFFFFF" sketch:type="MSShapeGroup"></path>
            <path d="M272.576,12.383 L282.173,12.383 L282.173,41.467 L294.359,41.467 L294.359,12.383 L303.357,12.383 L303.357,1.064 L267.551,1.064 L272.576,12.383" id="Fill-8" fill="#FFFFFF" sketch:type="MSShapeGroup"></path>
            <g id="Group-12">
                <mask id="mask-4" sketch:name="Clip 10" fill="white">
                    <use xlink:href="#path-3"></use>
                </mask>
                <g id="Clip-10"></g>
                <path d="M22.591,16.322 L7.344,1.015 L0,1.015 L0,41.467 L12.49,41.467 L12.49,23.916 L22.591,34.055 L32.692,23.916 L32.692,41.467 L45.182,41.467 L45.182,1.015 L37.839,1.015 L22.591,16.322" id="Fill-9" fill="#FFFFFF" sketch:type="MSShapeGroup" mask="url(#mask-4)"></path>
                <path d="M68.46,11.293 L73.305,11.293 L73.305,24.312 C73.305,27.575 70.66,30.231 67.41,30.231 C64.158,30.231 61.514,27.575 61.514,24.312 L61.514,1.015 L49.79,1.015 L49.79,24.312 C49.79,34.065 57.694,42 67.41,42 C77.124,42 85.03,34.065 85.03,24.312 L85.03,1.015 L68.46,1.015 L68.46,11.293" id="Fill-11" fill="#FFFFFF" sketch:type="MSShapeGroup" mask="url(#mask-4)"></path>
            </g>
            <path d="M123.324,1.015 L123.324,11.293 L128.467,11.293 L128.467,31.109 L123.324,31.109 L123.324,41.388 L133.612,41.388 L133.612,41.371 L140.511,41.371 L140.511,1.015 L123.324,1.015" id="Fill-13" fill="#FFFFFF" sketch:type="MSShapeGroup"></path>
            <path d="M384.361,1.065 L372.073,1.065 L372.073,16.096 L360.486,16.096 L360.486,1.065 L347.977,1.065 L347.977,41.467 L360.486,41.467 L360.486,27.684 L372.073,27.684 L372.073,41.467 L384.585,41.467 L384.585,1.065 L384.361,1.065" id="Fill-14" fill="#FFFFFF" sketch:type="MSShapeGroup"></path>
        </g>
    </g>
</svg>