<?xml version="1.0" encoding="UTF-8" standalone="no"?>
<svg width="39px" height="39px" viewBox="0 0 39 39" version="1.1" xmlns="http://www.w3.org/2000/svg" xmlns:xlink="http://www.w3.org/1999/xlink" xmlns:sketch="http://www.bohemiancoding.com/sketch/ns">
    <!-- Generator: Sketch 3.0.4 (8054) - http://www.bohemiancoding.com/sketch -->
    <title>spotify</title>
    <desc>Created with Sketch.</desc>
    <defs></defs>
    <g id="Page-1" stroke="none" stroke-width="1" fill="none" fill-rule="evenodd" sketch:type="MSPage">
        <g id="spotify" sketch:type="MSLayerGroup" transform="translate(1.000000, 0.000000)" fill="#FFFFFF">
            <path d="M30.1983913,16.9032444 C24.0386789,13.2670667 13.8782542,12.9326667 7.99802676,14.7068444 C7.05380936,14.9914222 6.05522408,14.4615333 5.76936789,13.5229333 C5.48308696,12.5839111 6.01572241,11.5916889 6.96036455,11.3066889 C13.7104783,9.26988889 24.9315017,9.6634 32.022689,13.8476222 C32.8721873,14.3488 33.1508227,15.4389778 32.6470702,16.2821556 C32.1433177,17.1261778 31.0457659,17.4044222 30.1983913,16.9032444 L30.1983913,16.9032444 L30.1983913,16.9032444 Z M29.9966355,22.2891111 C29.5646656,22.9862 28.6476321,23.2049111 27.9472207,22.7767778 C22.8120033,19.6392444 14.9813278,18.7302 8.90571572,20.5634889 C8.11780602,20.7999333 7.28572241,20.3582889 7.04658863,19.5767556 C6.80915385,18.7935333 7.25344147,17.9676667 8.04007692,17.7295333 C14.9804783,15.6361556 23.608408,16.6499111 29.5064749,20.2531556 C30.2068863,20.6817111 30.4273311,21.5937111 29.9966355,22.2891111 L29.9966355,22.2891111 L29.9966355,22.2891111 Z M27.6583913,27.4617556 C27.315194,28.0212 26.5816522,28.1968444 26.0209833,27.8556889 C21.5335084,25.1294 15.885194,24.5138 9.23362207,26.0240889 C8.59267559,26.1701778 7.95385284,25.7707556 7.80773913,25.1336222 C7.66077592,24.4964889 8.06088963,23.8614667 8.70353512,23.7162222 C15.9824615,22.0619556 22.2262742,22.7738222 27.2633746,25.8332444 C27.824893,26.1744 28.0020134,26.9035778 27.6583913,27.4617556 L27.6583913,27.4617556 L27.6583913,27.4617556 Z M18.8945418,0.0633333333 C8.34122408,0.0633333333 -0.214498328,8.56773333 -0.214498328,19.0586889 C-0.214498328,29.5504889 8.34122408,38.0544667 18.8945418,38.0544667 C29.448709,38.0544667 38.0040067,29.5504889 38.0040067,19.0586889 C38.0040067,8.56773333 29.448709,0.0633333333 18.8945418,0.0633333333 L18.8945418,0.0633333333 L18.8945418,0.0633333333 Z" id="Fill-13" sketch:type="MSShapeGroup"></path>
        </g>
    </g>
</svg>