<?xml version="1.0" encoding="UTF-8" standalone="no"?>
<svg width="129px" height="39px" viewBox="0 0 129 39" version="1.1" xmlns="http://www.w3.org/2000/svg" xmlns:xlink="http://www.w3.org/1999/xlink" xmlns:sketch="http://www.bohemiancoding.com/sketch/ns">
    <!-- Generator: Sketch 3.0.4 (8054) - http://www.bohemiancoding.com/sketch -->
    <title>Group 15</title>
    <desc>Created with Sketch.</desc>
    <defs>
        <path id="path-1" d="M-0.191561873,0.0633333333 L127.2111,0.0633333333 L127.2111,38.0544667 L-0.191561873,38.0544667 L-0.191561873,0.0633333333 Z"></path>
    </defs>
    <g id="Page-1" stroke="none" stroke-width="1" fill="none" fill-rule="evenodd" sketch:type="MSPage">
        <g id="Desktop" sketch:type="MSArtboardGroup" transform="translate(-28.000000, -29.000000)">
            <g id="Group-15" sketch:type="MSLayerGroup" transform="translate(29.000000, 29.000000)">
                <mask id="mask-2" sketch:name="Clip 14" fill="white">
                    <use xlink:href="#path-1"></use>
                </mask>
                <g id="Clip-14"></g>
                <path d="M30.1983913,16.9032444 C24.0386789,13.2670667 13.8782542,12.9326667 7.99802676,14.7068444 C7.05380936,14.9914222 6.05522408,14.4615333 5.76936789,13.5229333 C5.48308696,12.5839111 6.01572241,11.5916889 6.96036455,11.3066889 C13.7104783,9.26988889 24.9315017,9.6634 32.022689,13.8476222 C32.8721873,14.3488 33.1508227,15.4389778 32.6470702,16.2821556 C32.1433177,17.1261778 31.0457659,17.4044222 30.1983913,16.9032444 L30.1983913,16.9032444 Z M29.9966355,22.2891111 C29.5646656,22.9862 28.6476321,23.2049111 27.9472207,22.7767778 C22.8120033,19.6392444 14.9813278,18.7302 8.90571572,20.5634889 C8.11780602,20.7999333 7.28572241,20.3582889 7.04658863,19.5767556 C6.80915385,18.7935333 7.25344147,17.9676667 8.04007692,17.7295333 C14.9804783,15.6361556 23.608408,16.6499111 29.5064749,20.2531556 C30.2068863,20.6817111 30.4273311,21.5937111 29.9966355,22.2891111 L29.9966355,22.2891111 Z M27.6583913,27.4617556 C27.315194,28.0212 26.5816522,28.1968444 26.0209833,27.8556889 C21.5335084,25.1294 15.885194,24.5138 9.23362207,26.0240889 C8.59267559,26.1701778 7.95385284,25.7707556 7.80773913,25.1336222 C7.66077592,24.4964889 8.06088963,23.8614667 8.70353512,23.7162222 C15.9824615,22.0619556 22.2262742,22.7738222 27.2633746,25.8332444 C27.824893,26.1744 28.0020134,26.9035778 27.6583913,27.4617556 L27.6583913,27.4617556 Z M18.8945418,0.0633333333 C8.34122408,0.0633333333 -0.214498328,8.56773333 -0.214498328,19.0586889 C-0.214498328,29.5504889 8.34122408,38.0544667 18.8945418,38.0544667 C29.448709,38.0544667 38.0040067,29.5504889 38.0040067,19.0586889 C38.0040067,8.56773333 29.448709,0.0633333333 18.8945418,0.0633333333 L18.8945418,0.0633333333 Z" id="Fill-13" fill="#FFFFFF" sketch:type="MSShapeGroup" mask="url(#mask-2)"></path>
                <g id="Group" mask="url(#mask-2)" fill="#FFFFFF" sketch:type="MSShapeGroup">
                    <g transform="translate(43.749164, 8.866667)">
                        <path d="M8.02563545,8.73282222 C4.7266087,7.95086667 4.1391806,7.40155556 4.1391806,6.24846667 C4.1391806,5.15871111 5.17089632,4.42573333 6.7059398,4.42573333 C8.19383612,4.42573333 9.66898997,4.98264444 11.2155017,6.12897778 C11.2626488,6.1636 11.3212642,6.17753333 11.3790301,6.16824444 C11.4363712,6.1598 11.4877659,6.12813333 11.5213211,6.08084444 L13.1323946,3.82322222 C13.1986555,3.73033333 13.1803913,3.6024 13.0916187,3.53104444 C11.2507559,2.06297778 9.17755518,1.349 6.75478595,1.349 C3.19241472,1.349 0.704234114,3.47404444 0.704234114,6.51488889 C0.704234114,9.77571111 2.85049164,10.9300667 6.55982609,11.8213778 C9.71698662,12.5442222 10.2500468,13.1496889 10.2500468,14.2326889 C10.2500468,15.4322222 9.17245819,16.1782889 7.43863211,16.1782889 C5.5128194,16.1782889 3.94209699,15.5331333 2.18448495,14.0207333 C2.14073579,13.9831556 2.0812709,13.9658444 2.02605351,13.9692222 C1.96786288,13.9742889 1.91476923,14.0008889 1.87781605,14.0448 L0.0713578595,16.1820889 C-0.00424749164,16.2707556 0.00509698997,16.4029111 0.0930200669,16.4797556 C2.13733779,18.2944667 4.65185284,19.2529111 7.36557525,19.2529111 C11.2044582,19.2529111 13.6849933,17.1675556 13.6849933,13.9405111 C13.6849933,11.2129556 12.0458863,9.70477778 8.02563545,8.73282222" id="Fill-16"></path>
                        <path d="M56.9529164,5.76671111 L53.998786,5.76671111 C53.8794314,5.76671111 53.7821639,5.8634 53.7821639,5.98204444 L53.7821639,18.7943778 C53.7821639,18.9130222 53.8794314,19.0097111 53.998786,19.0097111 L56.9529164,19.0097111 C57.0722709,19.0097111 57.1695385,18.9130222 57.1695385,18.7943778 L57.1695385,5.98204444 C57.1695385,5.8634 57.0722709,5.76671111 56.9529164,5.76671111" id="Fill-21"></path>
                        <path d="M53.3705819,2.03806667 C53.3705819,3.20255556 54.3207458,4.14537778 55.4909298,4.14537778 C56.660689,4.14537778 57.6095786,3.20255556 57.6095786,2.03806667 C57.6095786,0.874844444 56.660689,-0.0671333333 55.4909298,-0.0671333333 C54.3207458,-0.0671333333 53.3705819,0.874844444 53.3705819,2.03806667 Z" id="Fill-22"></path>
                        <path d="M25.1566187,12.3884222 C25.1566187,14.6912222 23.7294615,16.2982 21.6864181,16.2982 C19.6658863,16.2982 18.142311,14.6181778 18.142311,12.3884222 C18.142311,10.1586667 19.6658863,8.47822222 21.6864181,8.47822222 C23.6967559,8.47822222 25.1566187,10.1223556 25.1566187,12.3884222 L25.1566187,12.3884222 Z M22.3698395,5.49817778 C20.706097,5.49817778 19.3413779,6.14966667 18.2157926,7.48473333 L18.2157926,5.98204444 C18.2157926,5.8634 18.1189498,5.76671111 18.0000201,5.76671111 L15.0458896,5.76671111 C14.9265351,5.76671111 14.8296923,5.8634 14.8296923,5.98204444 L14.8296923,22.6771333 C14.8296923,22.7957778 14.9265351,22.8924667 15.0458896,22.8924667 L18.0000201,22.8924667 C18.1189498,22.8924667 18.2157926,22.7957778 18.2157926,22.6771333 L18.2157926,17.4073778 C19.3413779,18.6634889 20.7065217,19.2765556 22.3698395,19.2765556 C25.4620134,19.2765556 28.5915652,16.9108444 28.5915652,12.3884222 C28.5915652,7.86473333 25.4620134,5.49817778 22.3698395,5.49817778 L22.3698395,5.49817778 Z" id="Fill-17"></path>
                        <path d="M36.6142274,16.3222667 C34.4964281,16.3222667 32.899796,14.6308444 32.899796,12.3884222 C32.899796,10.1362889 34.4412107,8.50186667 36.5653813,8.50186667 C38.6967726,8.50186667 40.3044482,10.1932889 40.3044482,12.4374 C40.3044482,14.6891111 38.7524147,16.3222667 36.6142274,16.3222667 L36.6142274,16.3222667 Z M36.6142274,5.49817778 C32.6326288,5.49817778 29.5132709,8.5462 29.5132709,12.4374 C29.5132709,16.2863778 32.6109666,19.3023111 36.5653813,19.3023111 C40.5614214,19.3023111 43.6901237,16.2648444 43.6901237,12.3884222 C43.6901237,8.52466667 40.5826589,5.49817778 36.6142274,5.49817778 L36.6142274,5.49817778 Z" id="Fill-18"></path>
                        <path d="M52.1927525,5.76671111 L48.9417224,5.76671111 L48.9417224,2.46282222 C48.9417224,2.34417778 48.8453043,2.24791111 48.7263746,2.24791111 L45.7722441,2.24791111 C45.6528896,2.24791111 45.5556221,2.34417778 45.5556221,2.46282222 L45.5556221,5.76671111 L44.1348361,5.76671111 C44.0159064,5.76671111 43.919913,5.8634 43.919913,5.98204444 L43.919913,8.50608889 C43.919913,8.62431111 44.0159064,8.721 44.1348361,8.721 L45.5556221,8.721 L45.5556221,15.2519333 C45.5556221,17.8912444 46.8770167,19.2292667 49.4832776,19.2292667 C50.542602,19.2292667 51.4222575,19.0118222 52.2505184,18.5444222 C52.3180535,18.5072667 52.3601037,18.4350667 52.3601037,18.3582222 L52.3601037,15.9549333 C52.3601037,15.8810444 52.3210268,15.8109556 52.2573144,15.7716889 C52.1927525,15.7315778 52.1124749,15.7298889 52.0470635,15.7624 C51.4778997,16.0469778 50.9274247,16.1782889 50.3128127,16.1782889 C49.3647726,16.1782889 48.9417224,15.7505778 48.9417224,14.7917111 L48.9417224,8.721 L52.1927525,8.721 C52.312107,8.721 52.4085251,8.62431111 52.4085251,8.50608889 L52.4085251,5.98204444 C52.4085251,5.8634 52.312107,5.76671111 52.1927525,5.76671111" id="Fill-19"></path>
                        <path d="M63.5195385,5.7798 L63.5195385,5.37404444 C63.5195385,4.18 63.9795418,3.64757778 65.0125318,3.64757778 C65.6284181,3.64757778 66.1232508,3.76917778 66.6775485,3.95326667 C66.7455084,3.97437778 66.8168662,3.96382222 66.8720836,3.92328889 C66.929,3.88275556 66.9612809,3.81731111 66.9612809,3.74848889 L66.9612809,1.27384444 C66.9612809,1.17926667 66.9001171,1.09524444 66.808796,1.0678 C66.2234916,0.894688889 65.4746589,0.716933333 64.3533211,0.716933333 C61.6243077,0.716933333 60.1822843,2.24453333 60.1822843,5.13253333 L60.1822843,5.75404444 L58.7631973,5.75404444 C58.6438428,5.75404444 58.5461505,5.85073333 58.5461505,5.96937778 L58.5461505,8.50608889 C58.5461505,8.62431111 58.6438428,8.721 58.7631973,8.721 L60.1822843,8.721 L60.1822843,18.7943778 C60.1822843,18.9130222 60.2782776,19.0097111 60.3976321,19.0097111 L63.3517625,19.0097111 C63.4711171,19.0097111 63.5683846,18.9130222 63.5683846,18.7943778 L63.5683846,8.721 L66.3267057,8.721 L70.5521104,18.7918444 C70.0721438,19.8499333 69.6006722,20.0606222 68.9567525,20.0606222 C68.43601,20.0606222 67.8880836,19.9060889 67.3278395,19.6012444 C67.2747458,19.5725333 67.2127324,19.5674667 67.1553913,19.5852 C67.0993244,19.6050444 67.0517525,19.6464222 67.0279666,19.7008889 L66.026408,21.8850444 C65.9788361,21.9880667 66.019612,22.1092444 66.1194281,22.1628667 C67.1647358,22.7252667 68.1085284,22.9655111 69.2744649,22.9655111 C71.4559766,22.9655111 72.6618395,21.9555556 73.7249866,19.2381333 L78.85001,6.07282222 C78.8759197,6.00653333 78.8682742,5.9318 78.8274983,5.87311111 C78.7867224,5.81484444 78.721311,5.7798 78.6495284,5.7798 L75.5743445,5.7798 C75.4821739,5.7798 75.3997726,5.83806667 75.3696154,5.92377778 L72.2188261,14.8698222 L68.7681639,5.91786667 C68.7363077,5.83468889 68.6560301,5.7798 68.5659833,5.7798 L63.5195385,5.7798" id="Fill-20"></path>
                        <path d="M81.4932241,7.0414 L80.9520936,7.0414 L80.9520936,7.72751111 L81.4932241,7.72751111 C81.7637893,7.72751111 81.9247692,7.5962 81.9247692,7.38424444 C81.9247692,7.16088889 81.7637893,7.0414 81.4932241,7.0414 L81.4932241,7.0414 Z M81.8440669,8.02011111 L82.4323445,8.8388 L81.9366622,8.8388 L81.4074247,8.08808889 L80.9520936,8.08808889 L80.9520936,8.8388 L80.5371137,8.8388 L80.5371137,6.66942222 L81.510214,6.66942222 C82.0169398,6.66942222 82.3507926,6.92697778 82.3507926,7.36102222 C82.3507926,7.71695556 82.1439398,7.93397778 81.8440669,8.02011111 L81.8440669,8.02011111 Z M81.383214,5.94742222 C80.3183679,5.94742222 79.5126187,6.78891111 79.5126187,7.81913333 C79.5126187,8.84935556 80.3124214,9.67944444 81.3725953,9.67944444 C82.4370167,9.67944444 83.2436154,8.8388 83.2436154,7.80773333 C83.2436154,6.77751111 82.4429632,5.94742222 81.383214,5.94742222 L81.383214,5.94742222 Z M81.3725953,9.88633333 C80.2032609,9.88633333 79.2934482,8.9528 79.2934482,7.81913333 C79.2934482,6.68588889 80.2151538,5.7418 81.383214,5.7418 C82.5525485,5.7418 83.4623612,6.67491111 83.4623612,7.80773333 C83.4623612,8.94097778 82.541505,9.88633333 81.3725953,9.88633333 L81.3725953,9.88633333 Z" id="Fill-23"></path>
                    </g>
                </g>
            </g>
        </g>
    </g>
</svg>