<?xml version="1.0" encoding="UTF-8" standalone="no"?>
<svg width="185px" height="20px" viewBox="0 0 185 20" version="1.1" xmlns="http://www.w3.org/2000/svg" xmlns:xlink="http://www.w3.org/1999/xlink" xmlns:sketch="http://www.bohemiancoding.com/sketch/ns">
    <!-- Generator: Sketch 3.0.4 (8054) - http://www.bohemiancoding.com/sketch -->
    <title>Imported Layers</title>
    <desc>Created with Sketch.</desc>
    <defs></defs>
    <g id="Page-1" stroke="none" stroke-width="1" fill="none" fill-rule="evenodd" sketch:type="MSPage">
        <g id="Desktop" sketch:type="MSArtboardGroup" transform="translate(-813.000000, -38.000000)" fill="#FFFFFF">
            <g id="Imported-Layers" sketch:type="MSLayerGroup" transform="translate(813.000000, 39.000000)">
                <path d="M6.02888571,17.8517647 L7.56139048,13.3785882 L5.05102857,13.3785882 L3.5446,17.8517647 L1.06031429,17.8517647 L2.56674286,13.3785882 L0.029952381,13.3785882 L0.717095238,11.2344706 L3.30674286,11.2344706 L4.73388571,6.84035294 L2.1442381,6.84035294 L2.8046,4.72270588 L5.47388571,4.72270588 L6.95388571,0.196588235 L9.43781905,0.196588235 L7.95781905,4.72270588 L10.4421048,4.72270588 L11.9221048,0.196588235 L14.432819,0.196588235 L12.8999619,4.72270588 L15.4635333,4.72270588 L14.8292476,6.84035294 L12.1863905,6.84035294 L10.732819,11.2344706 L13.4021048,11.2344706 L12.7413905,13.3785882 L10.0196,13.3785882 L8.53924762,17.8517647 L6.02888571,17.8517647 L6.02888571,17.8517647 Z M9.70210476,6.84035294 L7.21817143,6.84035294 L5.79102857,11.2344706 L8.24888571,11.2344706 L9.70210476,6.84035294 L9.70210476,6.84035294 Z" id="Fill-1" sketch:type="MSShapeGroup"></path>
                <path d="M28.7835333,17.8517647 L26.087819,9.14329412 L23.3921048,17.8517647 L19.7981714,17.8517647 L15.9131714,5.06682353 L19.4017429,5.06682353 L21.7803143,13.6697647 L24.5813905,5.06682353 L27.567819,5.06682353 L30.3692476,13.6697647 L32.7474667,5.06682353 L36.2360381,5.06682353 L32.3510381,17.8517647 L28.7835333,17.8517647" id="Fill-2" sketch:type="MSShapeGroup"></path>
                <path d="M37.0824571,11.4462353 C37.0824571,7.81976471 39.6196,4.74952941 43.8213905,4.74952941 C48.0496095,4.74952941 50.5867524,7.81976471 50.5867524,11.4462353 C50.5867524,15.0988235 48.0496095,18.1694118 43.8213905,18.1694118 C39.6196,18.1694118 37.0824571,15.0988235 37.0824571,11.4462353 L37.0824571,11.4462353 Z M47.0985333,11.4462353 C47.0985333,9.46094118 45.9092476,7.74035294 43.8213905,7.74035294 C41.7338857,7.74035294 40.5706762,9.46094118 40.5706762,11.4462353 C40.5706762,13.4576471 41.7338857,15.1782353 43.8213905,15.1782353 C45.9092476,15.1782353 47.0985333,13.4576471 47.0985333,11.4462353 L47.0985333,11.4462353 Z" id="Fill-3" sketch:type="MSShapeGroup"></path>
                <path d="M64.2767524,17.8517647 L61.5810381,9.14329412 L58.8853238,17.8517647 L55.2913905,17.8517647 L51.4063905,5.06682353 L54.8949619,5.06682353 L57.2735333,13.6697647 L60.0746095,5.06682353 L63.0610381,5.06682353 L65.8624667,13.6697647 L68.2406857,5.06682353 L71.7292571,5.06682353 L67.8442571,17.8517647 L64.2767524,17.8517647" id="Fill-4" sketch:type="MSShapeGroup"></path>
                <path d="M82.0367524,17.8517647 L82.0367524,10.0697647 C82.0367524,8.29623529 81.1117524,7.74035294 79.658181,7.74035294 C78.363181,7.74035294 77.3324667,8.48152941 76.7513905,9.24917647 L76.7513905,17.8517647 L73.3949619,17.8517647 L73.3949619,0.196588235 L76.7513905,0.196588235 L76.7513905,6.73482353 C77.5703238,5.75541176 79.1560381,4.74952941 81.2438952,4.74952941 C84.0453238,4.74952941 85.3928286,6.28482353 85.3928286,8.77270588 L85.3928286,17.8517647 L82.0367524,17.8517647" id="Fill-5" sketch:type="MSShapeGroup"></path>
                <path d="M95.8585429,17.8517647 L95.8585429,16.5282353 C94.9864,17.5605882 93.4799714,18.1694118 91.8153238,18.1694118 C89.7803238,18.1694118 87.3753238,16.7929412 87.3753238,13.9344706 C87.3753238,10.9432941 89.7803238,9.80505882 91.8153238,9.80505882 C93.5064,9.80505882 95.0128286,10.3609412 95.8585429,11.3668235 L95.8585429,9.64623529 C95.8585429,8.34917647 94.7485429,7.50211765 93.0574667,7.50211765 C91.683181,7.50211765 90.4146095,8.00505882 89.3310381,9.01094118 L88.0624667,6.76094118 C89.6214,5.38447059 91.6303238,4.74952941 93.6385429,4.74952941 C96.5453333,4.74952941 99.2149714,5.91388235 99.2149714,9.59329412 L99.2149714,17.8517647 L95.8585429,17.8517647 L95.8585429,17.8517647 Z M95.8585429,14.7811765 L95.8585429,13.1929412 C95.3035429,12.4521176 94.2464,12.0815294 93.1628286,12.0815294 C91.8414,12.0815294 90.758181,12.7697647 90.758181,14.0138824 C90.758181,15.2050588 91.8414,15.8929412 93.1628286,15.8929412 C94.2464,15.8929412 95.3035429,15.5227059 95.8585429,14.7811765 L95.8585429,14.7811765 Z" id="Fill-6" sketch:type="MSShapeGroup"></path>
                <path d="M101.197467,11.4462353 C101.197467,7.52858824 104.025324,4.74952941 107.962829,4.74952941 C110.579257,4.74952941 112.164971,5.88776471 113.010333,7.05211765 L110.816762,9.11682353 C110.209257,8.21682353 109.284257,7.74035294 108.1214,7.74035294 C106.086752,7.74035294 104.65961,9.22270588 104.65961,11.4462353 C104.65961,13.6697647 106.086752,15.1782353 108.1214,15.1782353 C109.284257,15.1782353 110.209257,14.6488235 110.816762,13.8021176 L113.010333,15.84 C112.164971,17.0311765 110.579257,18.1694118 107.962829,18.1694118 C104.025324,18.1694118 101.197467,15.3903529 101.197467,11.4462353" id="Fill-7" sketch:type="MSShapeGroup"></path>
                <path d="M123.476048,17.8517647 L120.093543,12.9285882 L118.560686,14.5694118 L118.560686,17.8517647 L115.204257,17.8517647 L115.204257,0.196588235 L118.560686,0.196588235 L118.560686,10.758 L123.396762,5.06682353 L127.519619,5.06682353 L122.472114,10.8638824 L127.67819,17.8517647 L123.476048,17.8517647" id="Fill-8" sketch:type="MSShapeGroup"></path>
                <path d="M128.920686,17.8517647 L128.920686,14.9135294 C136.135333,9.56682353 138.249619,7.74035294 138.249619,5.57011765 C138.249619,4.03482353 136.849257,3.26717647 135.395686,3.26717647 C133.386762,3.26717647 131.854257,4.06129412 130.664971,5.30541176 L128.524257,2.81717647 C130.242114,0.831882353 132.85819,-0.0681176471 135.316048,-0.0681176471 C139.068552,-0.0681176471 142.054981,2.04952941 142.054981,5.57011765 C142.054981,8.58741176 139.571048,11.208 134.999257,14.5432941 L142.187124,14.5432941 L142.187124,17.8517647 L128.920686,17.8517647" id="Fill-9" sketch:type="MSShapeGroup"></path>
                <path d="M143.905333,9.03741176 C143.905333,4.48482353 146.151762,-0.0681176471 151.199267,-0.0681176471 C156.220343,-0.0681176471 158.4932,4.48482353 158.4932,9.03741176 C158.4932,13.59 156.220343,18.1694118 151.199267,18.1694118 C146.151762,18.1694118 143.905333,13.59 143.905333,9.03741176 L143.905333,9.03741176 Z M154.661057,9.03741176 C154.661057,5.78152941 153.709981,3.26717647 151.199267,3.26717647 C148.662476,3.26717647 147.711048,5.78152941 147.711048,9.03741176 C147.711048,12.2932941 148.662476,14.8341176 151.199267,14.8341176 C153.709981,14.8341176 154.661057,12.2932941 154.661057,9.03741176 L154.661057,9.03741176 Z" id="Fill-10" sketch:type="MSShapeGroup"></path>
                <path d="M164.228905,17.8517647 L164.228905,5.04070588 L161.294981,8.03152941 L159.154619,5.78152941 L164.704267,0.196588235 L167.98141,0.196588235 L167.98141,17.8517647 L164.228905,17.8517647" id="Fill-11" sketch:type="MSShapeGroup"></path>
                <path d="M178.816771,17.8517647 L178.816771,14.1991765 L170.38641,14.1991765 L170.38641,11.2344706 L177.389629,0.196588235 L182.569276,0.196588235 L182.569276,10.8903529 L184.842486,10.8903529 L184.842486,14.1991765 L182.569276,14.1991765 L182.569276,17.8517647 L178.816771,17.8517647 L178.816771,17.8517647 Z M178.816771,3.53188235 L174.059981,10.8903529 L178.816771,10.8903529 L178.816771,3.53188235 L178.816771,3.53188235 Z" id="Fill-12" sketch:type="MSShapeGroup"></path>
            </g>
        </g>
    </g>
</svg>